<svg width="136" height="48" viewBox="0 0 136 48" fill="none" xmlns="http://www.w3.org/2000/svg">
<mask id="mask0_129_325" style="mask-type:luminance" maskUnits="userSpaceOnUse" x="0" y="0" width="48" height="48">
<path d="M47.9816 0H0V48H47.9816V0Z" fill="white"/>
</mask>
<g mask="url(#mask0_129_325)">
<path d="M40.1384 28.1042C40.1384 24.4479 37.6071 21.6848 35.0052 18.8762C32.1982 15.9434 27.5581 11.28 24.0292 8.10108C20.5531 11.3749 15.8489 15.9574 13.053 18.8765C10.4522 21.6839 7.92012 24.4657 7.92012 28.1042V28.1943C7.92801 29.9811 8.432 31.7186 9.35925 33.1815C10.2524 34.5908 11.9172 35.7529 13.5417 36.425L13.6134 36.4542C15.1202 37.0599 16.7564 37.1636 18.3157 36.7539C19.9007 36.3375 21.3452 35.4061 22.4492 34.0671L22.4673 34.0456C22.6585 33.8249 22.8947 33.6433 23.1642 33.5171C23.4339 33.3908 23.7287 33.3241 24.0293 33.3241C24.3299 33.3241 24.6248 33.3909 24.8947 33.5173C25.1471 33.6356 25.3704 33.8024 25.5549 34.0047L25.5912 34.0456L25.6059 34.0629C26.7134 35.3934 28.1577 36.3172 29.7407 36.7288L29.8149 36.7476C31.3742 37.1363 33.0061 37.0146 34.5059 36.3942C36.1275 35.7233 37.7907 34.5654 38.6852 33.1614C39.6284 31.6808 40.1384 29.9172 40.1384 28.1042ZM42.4453 28.1042C42.4453 30.3458 41.8156 32.5415 40.6305 34.4017C39.3964 36.3387 37.2734 37.7464 35.3874 38.5267C33.4034 39.3474 31.2305 39.5005 29.1604 38.9622C27.1867 38.449 25.4078 37.3343 24.0301 35.7695C22.6564 37.3433 20.8778 38.4668 18.9017 38.986C16.8277 39.5308 14.649 39.3803 12.6602 38.5575C10.7693 37.7752 8.64356 36.3618 7.41107 34.4172C6.22818 32.5509 5.60444 30.3493 5.61338 28.1042C5.61338 23.4022 8.90866 19.9551 11.3687 17.2998L11.3817 17.2858C14.4289 14.1039 19.6825 9.00291 23.2211 5.69525L23.2415 5.67654C23.6751 5.29008 24.3307 5.28598 24.7693 5.67106C28.3302 8.79727 33.3216 13.7937 36.3866 16.9833L36.6771 17.2861L36.6899 17.2998C39.1489 19.954 42.4453 23.3835 42.4453 28.1042Z" fill="white"/>
<path d="M22.9912 41.423V35.3461C22.9912 34.7088 23.5076 34.1922 24.1446 34.1922C24.7816 34.1922 25.298 34.7088 25.298 35.3461V41.423C25.298 42.0603 24.7816 42.5768 24.1446 42.5768C23.5076 42.5768 22.9912 42.0603 22.9912 41.423Z" fill="white"/>
</g>
<path d="M58.0947 8.65516V12.7781H62.9434V14.6577H58.0947V18.9625H63.5495V20.8421H55.7916V6.77558H63.5495V8.65516H58.0947ZM71.1539 15.2034L74.75 20.8421H72.1439L69.7397 17.0627L67.477 20.8421H65.0729L68.669 15.3651L65.0729 9.7061H67.6791L70.0832 13.4855L72.3459 9.7061H74.75L71.1539 15.2034ZM81.2964 21.024C80.2458 21.024 79.2963 20.7882 78.4478 20.3166C77.5993 19.8316 76.9326 19.1579 76.4477 18.2956C75.9628 17.4198 75.7204 16.4092 75.7204 15.264C75.7204 14.1322 75.9698 13.1284 76.4679 12.2526C76.966 11.3768 77.6466 10.7032 78.5084 10.2316C79.3702 9.75998 80.3336 9.52421 81.3974 9.52421C82.4612 9.52421 83.4246 9.75998 84.2864 10.2316C85.1481 10.7032 85.8287 11.3768 86.3269 12.2526C86.825 13.1284 87.0743 14.1322 87.0743 15.264C87.0743 16.3958 86.8187 17.3996 86.3066 18.2754C85.7946 19.1512 85.0945 19.8316 84.2056 20.3166C83.3299 20.7882 82.3602 21.024 81.2964 21.024ZM81.2964 19.0232C81.8892 19.0232 82.441 18.8817 82.953 18.5987C83.4783 18.3158 83.9025 17.8914 84.2258 17.3255C84.549 16.7596 84.7106 16.0724 84.7106 15.264C84.7106 14.4556 84.556 13.7752 84.246 13.2227C83.936 12.6568 83.5256 12.2324 83.0136 11.9495C82.5016 11.6665 81.9498 11.5251 81.357 11.5251C80.7641 11.5251 80.2124 11.6665 79.7003 11.9495C79.2022 12.2324 78.8045 12.6568 78.5084 13.2227C78.2123 13.7752 78.0639 14.4556 78.0639 15.264C78.0639 16.4632 78.367 17.3929 78.973 18.0531C79.5924 18.6998 80.367 19.0232 81.2964 19.0232ZM88.5832 15.2236C88.5832 14.1052 88.8124 13.1149 89.2701 12.2526C89.7417 11.3903 90.375 10.7234 91.1692 10.2518C91.9773 9.76674 92.8732 9.52421 93.8562 9.52421C94.5835 9.52421 95.2975 9.68589 95.9977 10.0093C96.7117 10.3192 97.2774 10.7368 97.6947 11.2623V5.88631H100.018V20.8421H97.6947V19.1646C97.3178 19.7036 96.7925 20.1482 96.1189 20.4985C95.4591 20.8489 94.6984 21.024 93.836 21.024C92.8662 21.024 91.9773 20.7815 91.1692 20.2964C90.375 19.7979 89.7417 19.1108 89.2701 18.2349C88.8124 17.3457 88.5832 16.3419 88.5832 15.2236ZM97.6947 15.264C97.6947 14.496 97.5331 13.8291 97.2098 13.2632C96.9005 12.6973 96.4895 12.2661 95.9775 11.9697C95.4661 11.6733 94.9137 11.5251 94.3208 11.5251C93.7286 11.5251 93.1762 11.6733 92.6642 11.9697C92.1528 12.2526 91.7349 12.6771 91.4116 13.2429C91.1023 13.7954 90.947 14.4556 90.947 15.2236C90.947 15.9916 91.1023 16.6653 91.4116 17.2446C91.7349 17.824 92.1528 18.2686 92.6642 18.5785C93.1895 18.8749 93.7419 19.0232 94.3208 19.0232C94.9137 19.0232 95.4661 18.8749 95.9775 18.5785C96.4895 18.2821 96.9005 17.8509 97.2098 17.2851C97.5331 16.7057 97.6947 16.032 97.6947 15.264ZM113.125 9.7061V20.8421H110.821V19.5284C110.458 19.9865 109.979 20.3503 109.387 20.6198C108.807 20.8758 108.188 21.0038 107.528 21.0038C106.653 21.0038 105.865 20.8219 105.165 20.4581C104.478 20.0943 103.932 19.5554 103.528 18.8413C103.137 18.1271 102.942 17.2648 102.942 16.2543V9.7061H105.225V15.9107C105.225 16.9078 105.474 17.6758 105.973 18.2147C106.471 18.7402 107.151 19.0029 108.013 19.0029C108.875 19.0029 109.555 18.7402 110.054 18.2147C110.565 17.6758 110.821 16.9078 110.821 15.9107V9.7061H113.125ZM120.204 21.024C119.328 21.024 118.54 20.8691 117.84 20.5592C117.153 20.2358 116.608 19.8046 116.204 19.2657C115.8 18.7132 115.584 18.1002 115.557 17.4265H117.941C117.981 17.8981 118.204 18.2956 118.608 18.6189C119.025 18.9289 119.544 19.0838 120.163 19.0838C120.81 19.0838 121.308 18.9625 121.658 18.72C122.022 18.464 122.204 18.1407 122.204 17.7499C122.204 17.3322 122.002 17.0223 121.598 16.8202C121.207 16.6181 120.581 16.3958 119.719 16.1533C118.884 15.9242 118.204 15.7019 117.678 15.4863C117.153 15.2708 116.695 14.9406 116.305 14.496C115.928 14.0514 115.739 13.4653 115.739 12.7377C115.739 12.1448 115.914 11.6059 116.264 11.1208C116.615 10.6223 117.113 10.2316 117.759 9.94863C118.419 9.66568 119.173 9.52421 120.022 9.52421C121.288 9.52421 122.305 9.84758 123.073 10.4943C123.853 11.1276 124.271 11.9967 124.325 13.1015H122.022C121.982 12.603 121.78 12.2055 121.416 11.9091C121.052 11.6127 120.56 11.4644 119.941 11.4644C119.335 11.4644 118.87 11.5789 118.547 11.808C118.224 12.0371 118.062 12.3402 118.062 12.7175C118.062 13.0139 118.17 13.2632 118.385 13.4653C118.601 13.6674 118.863 13.8291 119.173 13.9503C119.483 14.0581 119.941 14.1996 120.547 14.3747C121.355 14.5903 122.015 14.8126 122.527 15.0417C123.052 15.2572 123.504 15.5806 123.881 16.0118C124.258 16.443 124.453 17.0156 124.467 17.7297C124.467 18.363 124.292 18.9289 123.941 19.4274C123.591 19.9259 123.093 20.3166 122.446 20.5996C121.813 20.8825 121.066 21.024 120.204 21.024ZM65.9536 31.0484C65.59 30.3478 65.0849 29.8223 64.4384 29.472C63.7919 29.1082 63.0444 28.9263 62.1959 28.9263C61.2666 28.9263 60.4383 29.1352 59.711 29.5528C58.9837 29.9705 58.4112 30.5634 57.9937 31.3314C57.5897 32.0994 57.3877 32.9886 57.3877 33.9992C57.3877 35.0097 57.5897 35.9057 57.9937 36.6872C58.4112 37.4552 58.9837 38.048 59.711 38.4657C60.4383 38.8833 61.2666 39.0922 62.1959 39.0922C63.4485 39.0922 64.4656 38.7419 65.2465 38.0413C66.0275 37.3407 66.506 36.3908 66.6809 35.1916H61.408V33.3524H69.1457V35.1512C68.9973 36.2425 68.6071 37.2463 67.9739 38.1625C67.3546 39.0788 66.5395 39.813 65.5294 40.3655C64.5325 40.9044 63.4213 41.1739 62.1959 41.1739C60.876 41.1739 59.6706 40.8707 58.5796 40.2644C57.4887 39.6447 56.6199 38.7891 55.9735 37.6977C55.3404 36.6063 55.0239 35.3735 55.0239 33.9992C55.0239 32.6248 55.3404 31.392 55.9735 30.3006C56.6199 29.2093 57.4887 28.3604 58.5796 27.7541C59.684 27.1343 60.8895 26.8244 62.1959 26.8244C63.6909 26.8244 65.0174 27.195 66.1759 27.936C67.3476 28.6636 68.1961 29.7011 68.7214 31.0484H65.9536ZM70.6495 35.4341C70.6495 34.3158 70.8787 33.3255 71.3364 32.4632C71.808 31.6009 72.4406 30.9339 73.2355 30.4623C74.0436 29.9773 74.9325 29.7347 75.9022 29.7347C76.7779 29.7347 77.5386 29.9099 78.1851 30.2602C78.8449 30.597 79.3701 31.0215 79.7609 31.5335V29.9166H82.0843V41.0526H79.7609V39.3954C79.3701 39.9208 78.8386 40.3587 78.1649 40.7091C77.4913 41.0594 76.7236 41.2345 75.8618 41.2345C74.9053 41.2345 74.0303 40.992 73.2355 40.507C72.4406 40.0084 71.808 39.3213 71.3364 38.4455C70.8787 37.5562 70.6495 36.5524 70.6495 35.4341ZM79.7609 35.4745C79.7609 34.7065 79.5993 34.0396 79.2761 33.4737C78.9661 32.9078 78.5557 32.4766 78.0437 32.1802C77.5317 31.8838 76.9799 31.7356 76.3871 31.7356C75.7943 31.7356 75.2425 31.8838 74.7305 32.1802C74.2184 32.4632 73.8011 32.8876 73.4779 33.4535C73.1679 34.0059 73.0132 34.6661 73.0132 35.4341C73.0132 36.2021 73.1679 36.8758 73.4779 37.4552C73.8011 38.0345 74.2184 38.4791 74.7305 38.7891C75.2557 39.0855 75.8082 39.2337 76.3871 39.2337C76.9799 39.2337 77.5317 39.0855 78.0437 38.7891C78.5557 38.4927 78.9661 38.0615 79.2761 37.4956C79.5993 36.9162 79.7609 36.2425 79.7609 35.4745ZM98.5849 29.7347C99.4599 29.7347 100.242 29.9166 100.928 30.2804C101.629 30.6442 102.174 31.1831 102.565 31.8973C102.969 32.6114 103.171 33.4737 103.171 34.4842V41.0526H100.888V34.8278C100.888 33.8307 100.639 33.0695 100.14 32.544C99.6417 32.0051 98.9618 31.7356 98.1 31.7356C97.2376 31.7356 96.5507 32.0051 96.0393 32.544C95.5406 33.0695 95.2918 33.8307 95.2918 34.8278V41.0526H93.0089V34.8278C93.0089 33.8307 92.7595 33.0695 92.2614 32.544C91.7627 32.0051 91.0827 31.7356 90.2209 31.7356C89.3585 31.7356 88.6716 32.0051 88.1602 32.544C87.6615 33.0695 87.4127 33.8307 87.4127 34.8278V41.0526H85.1096V29.9166H87.4127V31.1899C87.7896 30.7318 88.2676 30.3747 88.8471 30.1187C89.4261 29.8628 90.0454 29.7347 90.7058 29.7347C91.5947 29.7347 92.3889 29.9234 93.0897 30.3006C93.7899 30.6779 94.3284 31.2236 94.7059 31.9377C95.0424 31.264 95.5677 30.7318 96.2818 30.3411C96.9952 29.9368 97.7629 29.7347 98.5849 29.7347ZM107.273 28.4413C106.855 28.4413 106.506 28.2998 106.223 28.0168C105.94 27.7339 105.799 27.3836 105.799 26.9659C105.799 26.5482 105.94 26.1979 106.223 25.9149C106.506 25.632 106.855 25.4905 107.273 25.4905C107.677 25.4905 108.021 25.632 108.304 25.9149C108.587 26.1979 108.728 26.5482 108.728 26.9659C108.728 27.3836 108.587 27.7339 108.304 28.0168C108.021 28.2998 107.677 28.4413 107.273 28.4413ZM108.405 29.9166V41.0526H106.102V29.9166H108.405ZM117.045 29.7347C117.92 29.7347 118.701 29.9166 119.388 30.2804C120.088 30.6442 120.634 31.1831 121.024 31.8973C121.415 32.6114 121.61 33.4737 121.61 34.4842V41.0526H119.327V34.8278C119.327 33.8307 119.078 33.0695 118.58 32.544C118.082 32.0051 117.401 31.7356 116.539 31.7356C115.678 31.7356 114.991 32.0051 114.479 32.544C113.981 33.0695 113.731 33.8307 113.731 34.8278V41.0526H111.428V29.9166H113.731V31.1899C114.108 30.7318 114.587 30.3747 115.166 30.1187C115.758 29.8628 116.385 29.7347 117.045 29.7347ZM129.033 29.7347C129.895 29.7347 130.656 29.9099 131.316 30.2602C131.99 30.597 132.515 31.0215 132.892 31.5335V29.9166H135.215V41.2345C135.215 42.2585 135 43.168 134.569 43.9629C134.138 44.7714 133.512 45.4047 132.69 45.8627C131.882 46.3208 130.912 46.5499 129.78 46.5499C128.272 46.5499 127.02 46.1929 126.023 45.4787C125.027 44.7781 124.461 43.8215 124.326 42.6088H126.609C126.784 43.1882 127.154 43.653 127.72 44.0034C128.299 44.3672 128.986 44.5491 129.78 44.5491C130.71 44.5491 131.457 44.2661 132.023 43.7002C132.603 43.1343 132.892 42.3124 132.892 41.2345V39.3752C132.502 39.9006 131.969 40.3453 131.296 40.7091C130.636 41.0594 129.881 41.2345 129.033 41.2345C128.063 41.2345 127.174 40.992 126.366 40.507C125.572 40.0084 124.939 39.3213 124.467 38.4455C124.009 37.5562 123.78 36.5524 123.78 35.4341C123.78 34.3158 124.009 33.3255 124.467 32.4632C124.939 31.6009 125.572 30.9339 126.366 30.4623C127.174 29.9773 128.063 29.7347 129.033 29.7347ZM132.892 35.4745C132.892 34.7065 132.73 34.0396 132.407 33.4737C132.097 32.9078 131.686 32.4766 131.174 32.1802C130.663 31.8838 130.111 31.7356 129.518 31.7356C128.926 31.7356 128.373 31.8838 127.861 32.1802C127.35 32.4632 126.932 32.8876 126.609 33.4535C126.299 34.0059 126.144 34.6661 126.144 35.4341C126.144 36.2021 126.299 36.8758 126.609 37.4552C126.932 38.0345 127.35 38.4791 127.861 38.7891C128.386 39.0855 128.939 39.2337 129.518 39.2337C130.111 39.2337 130.663 39.0855 131.174 38.7891C131.686 38.4927 132.097 38.0615 132.407 37.4956C132.73 36.9162 132.892 36.2425 132.892 35.4745Z" fill="white"/>
</svg>
